<?xml version="1.0" standalone="no"?><!DOCTYPE svg PUBLIC "-//W3C//DTD SVG 1.1//EN" "http://www.w3.org/Graphics/SVG/1.1/DTD/svg11.dtd"><svg t="1774594377133" class="icon" viewBox="0 0 1024 1024" version="1.1" xmlns="http://www.w3.org/2000/svg" p-id="6033" xmlns:xlink="http://www.w3.org/1999/xlink" width="200" height="200"><path d="M901.371669 492.063677C934.892387 427.385398 737.546119 305.554821 463.916509 379.52016v-104.836913l157.172583-71.572077a15.879819 15.879819 0 0 0 7.962487-13.742441 16.120651 16.120651 0 0 0-7.962487-13.832753L444.66505 93.894136a15.428261 15.428261 0 0 0-10.942776-1.926651 34.619512 34.619512 0 0 0-38.849113 33.595979V401.887375c-13.742441 5.177875-27.560142 10.852464-41.573518 17.068924C24.700269 565.125898 61.291588 638.203172 97.687231 674.689127z m-10.145022 61.246432L133.044289 725.504549a69.239023 69.239023 0 0 0-69.043348 69.043348v68.877777a68.817568 68.817568 0 0 0 68.877776 68.892828H891.076127a68.83262 68.83262 0 0 0 68.877776-68.862724h0.090312V622.187885a68.712205 68.712205 0 0 0-68.787464-68.877776zM281.471682 863.455778a34.724875 34.724875 0 0 1-17.068924 30.269494 34.438888 34.438888 0 0 1-51.7938-30.269494v-68.877777a34.484044 34.484044 0 1 1 68.953036 0v68.877777z m137.740501 0a34.438888 34.438888 0 0 1-51.808852 30.269494 34.348576 34.348576 0 0 1-17.053873-30.269494V760.124061a34.484044 34.484044 0 0 1 68.953036 0v103.36182z m137.830812 0a34.484044 34.484044 0 0 1-68.953036 0v-137.830813a34.484044 34.484044 0 1 1 68.953036 0z m137.921124 0a34.484044 34.484044 0 0 1-68.968088 0V691.231233a34.484044 34.484044 0 1 1 68.968088 0z m137.815761 0.075259a34.438888 34.438888 0 1 1-68.862725 0V656.747189a34.484044 34.484044 0 1 1 68.953037 0.090312V863.531037z m0 0" p-id="6034"></path></svg>